<?xml version="1.0" encoding="UTF-8"?>
<svg id="Layer_1" data-name="Layer 1" xmlns="http://www.w3.org/2000/svg" viewBox="0 0 151 151">
  <defs>
    <style>
      .cls-1 {
        fill: #fff;
      }

      .cls-1, .cls-2 {
        stroke-width: 0px;
      }

      .cls-2 {
        fill: #3c3c3c;
      }
    </style>
  </defs>
  <rect class="cls-1" width="151" height="151"/>
  <path class="cls-2" d="m52.8,126.73l-6.66-20.76-20.7-6.87,4.71-3.67,17.34-.84,21.36-22.01-40.88-21.51,4.86-4.28,51.91,7.67,21.81-21.54c2.55-2.51,7.5-4.83,11.07-5.19,0,0,1.87-.18,4.18-.41,2.31-.23,3.98,1.46,3.73,3.77l-.45,4.18c-.39,3.58-2.76,8.5-5.3,11.01l-21.75,21.6,7.15,51.98-4.33,4.82-21.11-41.1-22.21,21.15-1.01,17.33-3.72,4.67Z"/>
</svg>